<?xml version="1.0" standalone="no"?>
<!DOCTYPE svg PUBLIC "-//W3C//DTD SVG 20010904//EN"
 "http://www.w3.org/TR/2001/REC-SVG-20010904/DTD/svg10.dtd">
<svg version="1.0" xmlns="http://www.w3.org/2000/svg"
 width="300.000000pt" height="300.000000pt" viewBox="0 0 300.000000 300.000000"
 preserveAspectRatio="xMidYMid meet">

<g transform="translate(0.000000,300.000000) scale(0.100000,-0.100000)"
fill="#000000" stroke="none">
<path d="M1352 2979 c-51 -5 -148 -22 -214 -39 -872 -219 -1352 -1143 -1027
-1975 182 -467 578 -799 1094 -917 87 -20 126 -23 300 -22 165 0 216 4 295 22
311 69 583 220 790 438 415 438 524 1084 274 1632 -220 482 -700 818 -1233
862 -129 11 -147 11 -279 -1z m320 -602 c15 -7 44 -28 65 -47 361 -331 393
-362 403 -398 15 -55 12 -1196 -3 -1242 -8 -24 -23 -41 -47 -52 -32 -17 -82
-18 -593 -18 -467 0 -563 2 -593 15 -67 28 -65 -6 -62 889 3 788 3 804 23 826
11 12 29 26 40 31 34 13 736 10 767 -4z"/>
<path d="M970 1505 l0 -755 525 0 525 0 0 530 0 530 -191 0 c-177 0 -194 2
-226 21 -58 36 -63 58 -63 254 l0 175 -285 0 -285 0 0 -755z m227 69 c20 -20
24 -31 19 -57 -7 -39 -39 -67 -76 -67 -37 0 -69 28 -76 67 -8 41 30 83 76 83
20 0 40 -9 57 -26z m718 -49 l0 -60 -320 0 -320 0 -3 49 c-5 82 -30 77 325 74
l318 -3 0 -60z m-715 -192 c39 -50 3 -123 -60 -123 -63 0 -99 73 -60 123 17
21 30 27 60 27 30 0 43 -6 60 -27z m715 -48 l0 -60 -320 0 -320 0 -3 63 -3 62
323 -2 323 -3 0 -60z m-720 -190 c14 -13 25 -36 25 -50 0 -14 -11 -37 -25 -50
-46 -47 -118 -23 -131 42 -5 26 -1 37 19 57 34 34 80 34 112 1z m720 -50 l0
-60 -320 0 -320 0 -3 49 c-5 82 -30 77 325 74 l318 -3 0 -60z"/>
<path d="M1660 2066 l0 -126 131 0 c116 0 130 2 119 15 -7 8 -66 65 -131 126
l-119 111 0 -126z"/>
</g>
</svg>
